<svg width="24" height="24" viewBox="0 0 24 24" fill="none" xmlns="http://www.w3.org/2000/svg">
<path d="M7.65595 18.8516C6.27214 18.8516 5.15039 20.0042 5.15039 21.426C5.15039 22.8479 6.27219 24.0005 7.65595 24.0005C9.03976 24.0005 10.1615 22.8479 10.1615 21.426C10.1616 20.0042 9.03976 18.8516 7.65595 18.8516ZM7.65595 22.8563C6.88717 22.8563 6.26398 22.216 6.26398 21.4261C6.26398 20.6362 6.88717 19.9958 7.65595 19.9958C8.42472 19.9958 9.04791 20.6362 9.04791 21.4261C9.04796 22.216 8.42472 22.8563 7.65595 22.8563Z" fill="#707090"/>
<path d="M18.236 18.8516C16.8522 18.8516 15.7305 20.0042 15.7305 21.426C15.7305 22.8479 16.8523 24.0005 18.236 24.0005C19.6198 24.0005 20.7416 22.8479 20.7416 21.426C20.7416 20.0042 19.6198 18.8516 18.236 18.8516ZM18.236 22.8563C17.4673 22.8563 16.8441 22.216 16.8441 21.4261C16.8441 20.6362 17.4673 19.9958 18.236 19.9958C19.0048 19.9958 19.628 20.6362 19.628 21.4261C19.628 22.216 19.0048 22.8563 18.236 22.8563Z" fill="#707090"/>
<path d="M23.8865 3.83319C23.7706 3.70304 23.6119 3.62157 23.4411 3.60432L5.31741 3.34687L4.8163 1.77355C4.46327 0.721806 3.50474 0.0117718 2.42206 0H0.556797C0.249277 0 0 0.256133 0 0.572112C0 0.88809 0.249277 1.14422 0.556797 1.14422H2.42206C3.02745 1.15797 3.56054 1.55739 3.75839 2.14543L7.29404 13.1014L7.01567 13.7593C6.70517 14.582 6.79842 15.508 7.26623 16.2479C7.72956 16.9747 8.50904 17.4233 9.35423 17.4494H20.1839C20.4914 17.4494 20.7407 17.1932 20.7407 16.8773C20.7407 16.5613 20.4914 16.3052 20.1839 16.3052H9.35417C8.87688 16.2929 8.43753 16.0349 8.1849 15.6186C7.93509 15.2074 7.88377 14.7008 8.04571 14.2455L8.26845 13.7306L19.989 12.472C21.2764 12.3263 22.3354 11.3642 22.6338 10.0691L23.9701 4.31939C24.0303 4.15382 23.9984 3.9676 23.8865 3.83319ZM21.548 9.8117C21.3673 10.6454 20.6784 11.2603 19.8498 11.3278L8.26845 12.5578L5.67934 4.4911L22.7451 4.74854L21.548 9.8117Z" fill="#707090"/>
</svg>
