<svg width="16" height="16" viewBox="0 0 16 16" fill="none" xmlns="http://www.w3.org/2000/svg">
<path d="M14.2604 0H6.60829C5.64969 0 4.86917 0.780521 4.86917 1.73912V5.91303C4.86917 6.10503 5.18642 6.26522 5.37842 6.26522C5.57042 6.26522 5.86678 6.10503 5.86678 5.91303V2C5.86678 1.42469 6.33495 0.956522 6.91026 0.956522H13.9995C14.5748 0.956522 15.043 1.42469 15.043 2L15.043 14C15.043 14.5753 14.5749 15.0435 13.9995 15.0435H6.91026C6.33495 15.0435 5.86678 14.5753 5.86678 14V10.1579C5.86678 9.96591 5.69127 9.74219 5.37842 9.74219C5.06557 9.74219 4.86917 9.96591 4.86917 10.1579L4.86914 14.2608C4.86914 15.2194 5.64966 16 6.60826 16H14.2604C15.219 16 15.9996 15.2194 15.9996 14.2608V1.73912C15.9996 0.780521 15.2191 0 14.2604 0Z" fill="white"/>
<path d="M11.4783 7.53906L0.347837 7.57349C0.155837 7.57349 0 7.80804 0 8.00004C0 8.19204 0.155837 8.43359 0.347837 8.43359H11.4783C11.6703 8.43359 11.8261 8.19204 11.8261 8.00004C11.8261 7.80804 11.6703 7.53906 11.4783 7.53906Z" fill="white"/>
<path d="M11.8223 7.75511L9.73535 5.66816C9.5997 5.5325 9.28036 5.53248 9.14471 5.66813C9.00906 5.80379 9.00906 6.02436 9.14471 6.16001L10.9854 8.00071L9.14471 9.8414C9.00906 9.97705 9.0477 10.2354 9.18335 10.3711C9.319 10.5067 9.61793 10.4501 9.73535 10.3339L11.8223 8.24698C11.9579 8.1113 11.9579 7.89076 11.8223 7.75511Z" fill="white"/>
</svg>
