<svg width="24" height="24" viewBox="0 0 24 24" fill="none" xmlns="http://www.w3.org/2000/svg">
<g clip-path="url(#clip0)">
<path d="M20.2181 15.6741C20.2828 15.6078 20.3278 15.5264 20.3537 15.4383C22.0371 14.1682 22.6361 11.5107 21.9612 8.99207C21.4727 7.1689 19.6454 3.93475 19.5679 3.79794C19.4362 3.56567 19.1881 3.44843 18.9585 3.50995L13.0209 5.10092C12.7913 5.16245 12.6351 5.38804 12.6371 5.65502C12.6384 5.81228 12.673 9.52678 13.1615 11.35C13.8415 13.8878 15.7003 15.8725 17.7768 16.1288C17.8433 16.1922 17.923 16.2402 18.0122 16.2652C18.4306 16.3827 18.7675 16.7427 18.8913 17.2047L19.8728 20.8677C20.0461 21.5146 19.7227 22.1653 19.1518 22.3183L18.1166 22.5957C17.8307 22.6723 17.6693 22.997 17.7561 23.3209C17.8429 23.6448 18.1451 23.8454 18.4309 23.7688L23.6072 22.3818C23.8931 22.3052 24.0545 21.9805 23.9677 21.6565C23.8809 21.3326 23.5788 21.1321 23.2929 21.2087L22.2576 21.4861C21.6868 21.639 21.0814 21.2372 20.908 20.5903L19.9265 16.9273C19.8027 16.4653 19.9145 15.9851 20.2181 15.6741ZM14.1968 11.0726C13.8464 9.76493 13.7516 7.20366 13.7271 6.16903L18.881 4.78806C19.377 5.69596 20.5753 7.9606 20.926 9.26947C21.6193 11.8569 20.674 14.3664 18.8187 14.8635C16.9635 15.3606 14.8901 13.66 14.1968 11.0726Z" fill="#707090"/>
<path d="M6.04731 16.1113C6.13652 16.0863 6.21623 16.0383 6.28267 15.9749C8.37559 15.7167 10.2231 13.7148 10.898 11.1961C11.3865 9.37294 11.4211 5.65844 11.4223 5.50117C11.4244 5.2342 11.2682 5.0086 11.0386 4.94708L5.10101 3.35612C4.87138 3.29458 4.62328 3.41184 4.49159 3.64409C4.41405 3.78091 2.58676 7.01506 2.09825 8.83823C1.41822 11.3761 2.03564 14.0243 3.70582 15.2845C3.73165 15.3726 3.77669 15.454 3.84142 15.5203C4.14504 15.8312 4.25676 16.3115 4.13297 16.7735L3.15146 20.4365C2.97813 21.0834 2.37271 21.4852 1.80186 21.3322L0.766602 21.0548C0.48074 20.9782 0.178599 21.1788 0.091803 21.5027C0.00500756 21.8266 0.166405 22.1513 0.452266 22.2279L5.62858 23.6149C5.91444 23.6915 6.21658 23.491 6.30337 23.1671C6.39017 22.8431 6.22877 22.5184 5.94291 22.4418L4.90765 22.1644C4.3368 22.0115 4.0134 21.3608 4.18672 20.7139L5.16823 17.0509C5.29202 16.5889 5.62889 16.2288 6.04731 16.1113ZM3.13351 9.11563C3.48388 7.80801 4.68244 5.5425 5.17855 4.63423L10.3324 6.0152C10.308 7.04947 10.2134 9.60985 9.86271 10.9187C9.1694 13.5062 7.09602 15.2067 5.24077 14.7096C3.38551 14.2125 2.4402 11.7031 3.13351 9.11563Z" fill="#707090"/>
<path d="M12 0.537109L12 2.81085" stroke="#707090" stroke-linecap="round"/>
<path d="M9.03125 1.07129L10.2659 3.12646" stroke="#707090" stroke-linecap="round"/>
<path d="M14.9902 1.07227L13.8407 3.12741" stroke="#707090" stroke-linecap="round"/>
</g>
<defs>
<clipPath id="clip0">
<rect width="24" height="24" fill="white"/>
</clipPath>
</defs>
</svg>
