<svg width="24" height="24" viewBox="0 0 24 24" fill="none" xmlns="http://www.w3.org/2000/svg">
<path d="M16.8265 19.3066H15.0189L18.5457 15.78C22.1497 12.176 22.1497 6.31146 18.5457 2.7074C16.7996 0.961487 14.4783 0 12.0093 0C9.54016 0 7.21893 0.961487 5.47302 2.7074C3.72711 4.45331 2.76562 6.77454 2.76562 9.24371C2.76562 11.7127 3.72711 14.0339 5.47302 15.7798L8.99963 19.3066H7.1803C5.88629 19.3066 4.83362 20.3593 4.83362 21.6533C4.83362 22.9473 5.88629 24 7.1803 24H16.8265C18.1203 24 19.1732 22.9473 19.1732 21.6533C19.1732 20.3593 18.1203 19.3066 16.8265 19.3066ZM6.13586 3.37024C7.70471 1.80157 9.79065 0.9375 12.0093 0.9375C14.2278 0.9375 16.3138 1.80157 17.8826 3.37042C19.4515 4.93909 20.3154 7.02502 20.3154 9.24371C20.3154 11.4624 19.4515 13.5482 17.8826 15.117L12.0093 20.9905L6.13586 15.117C2.89728 11.8784 2.89728 6.60883 6.13586 3.37024ZM16.8265 23.0625H7.1803C6.4032 23.0625 5.77094 22.4304 5.77094 21.6533C5.77094 20.8762 6.4032 20.2441 7.1803 20.2441H9.93713L11.6777 21.9847C11.7658 22.0726 11.885 22.1221 12.0092 22.1221C12.1335 22.1221 12.2527 22.0726 12.3408 21.9847L14.083 20.2423C14.0945 20.2432 14.1059 20.2441 14.1176 20.2441H16.8263C17.6034 20.2441 18.2355 20.8762 18.2355 21.6533C18.2355 22.4304 17.6034 23.0625 16.8265 23.0625Z" fill="#707090"/>
<path d="M12.7272 11.377C12.7825 11.3481 12.8273 11.3072 12.8605 11.2593C14.2171 10.776 15.096 9.30259 15.096 7.70968C15.096 6.55662 14.452 4.35928 14.4246 4.26629C14.378 4.10842 14.2328 4 14.0678 4H9.80167C9.63668 4 9.49142 4.10842 9.44486 4.26629C9.41746 4.35928 8.77344 6.55662 8.77344 7.70968C8.77344 9.31476 9.66302 10.7798 11.009 11.2593C11.0422 11.3072 11.087 11.3482 11.1423 11.377C11.4017 11.5125 11.5628 11.7782 11.5628 12.0704V14.3871C11.5628 14.7962 11.2291 15.129 10.819 15.129H10.0751C9.86975 15.129 9.70323 15.2951 9.70323 15.5C9.70323 15.7049 9.86975 15.871 10.0751 15.871H13.7943C13.9997 15.871 14.1662 15.7049 14.1662 15.5C14.1662 15.2951 13.9997 15.129 13.7943 15.129H13.0505C12.6403 15.129 12.3066 14.7962 12.3066 14.3871V12.0704C12.3066 11.7782 12.4678 11.5125 12.7272 11.377ZM9.51727 7.70968C9.51727 6.88267 9.9138 5.35633 10.0832 4.74194H13.7862C13.9557 5.3561 14.3522 6.88189 14.3522 7.70968C14.3522 9.34611 13.2677 10.6774 11.9347 10.6774C10.6017 10.6774 9.51727 9.34611 9.51727 7.70968Z" fill="#707090"/>
</svg>
