<svg width="100" height="38" viewBox="0 0 100 38" fill="none" xmlns="http://www.w3.org/2000/svg">
<path d="M12.5507 36.6016C8.88737 36.6016 5.9082 33.7208 5.9082 30.1797C5.9082 26.6386 8.88737 23.7578 12.5507 23.7578C16.214 23.7578 19.1932 26.6386 19.1932 30.1797C19.1932 33.7208 16.214 36.6016 12.5507 36.6016ZM12.5507 25.0016C9.59451 25.0016 7.19228 27.3236 7.19228 30.1797C7.19228 33.0358 9.59706 35.3578 12.5507 35.3578C15.5043 35.3578 17.9091 33.0358 17.9091 30.1797C17.9091 27.3261 15.5069 25.0016 12.5507 25.0016Z" fill="black"/>
<path d="M0.640625 19.869C0.640625 26.2291 5.97607 31.3874 12.5598 31.3874C19.1411 31.3874 24.4791 26.2315 24.4791 19.869C24.4791 13.5089 19.1436 8.35059 12.5598 8.35059C5.97607 8.35306 0.640625 13.5089 0.640625 19.869Z" fill="url(#paint0_linear)"/>
<path d="M12.56 25.0018C5.63413 25.0018 0 19.5566 0 12.8627C0 6.16878 5.63413 0.723633 12.56 0.723633C19.4858 0.723633 25.12 6.16878 25.12 12.8627C25.12 19.5566 19.4858 25.0018 12.56 25.0018ZM12.56 1.96746C6.34126 1.96746 1.28408 6.85622 1.28408 12.8627C1.28408 18.8716 6.34382 23.7579 12.56 23.7579C18.7787 23.7579 23.8359 18.8692 23.8359 12.8627C23.8359 6.85622 18.7762 1.96746 12.56 1.96746Z" fill="black"/>
<path d="M38.5293 31.8037H39.0756V33.782C39.3181 33.3987 39.7113 33.186 40.1963 33.186C41.0745 33.186 41.7127 33.8957 41.7127 34.8947C41.7127 35.8938 41.077 36.6034 40.1963 36.6034C39.6908 36.6034 39.2747 36.3834 39.0399 35.9803L38.9709 36.5243H38.5293V31.8037ZM40.0661 33.6212C39.479 33.6212 39.0705 34.0441 39.0705 34.6326V35.1544C39.0705 35.7503 39.479 36.1658 40.0661 36.1658C40.6967 36.1658 41.1536 35.644 41.1536 34.8923C41.1511 34.1504 40.6941 33.6212 40.0661 33.6212Z" fill="url(#paint1_linear)"/>
<path d="M43.8926 37.0129C43.6169 37.6905 43.2698 37.9996 42.7311 37.9996C42.5984 37.9996 42.4273 37.9798 42.2614 37.9402L42.338 37.51C42.4631 37.5446 42.5881 37.5644 42.6775 37.5644C43.017 37.5644 43.2161 37.3764 43.3974 36.9214L43.571 36.4986L42.1797 33.2666H42.7541L43.8339 35.9076L44.878 33.2666H45.4601L43.8926 37.0129Z" fill="url(#paint2_linear)"/>
<path d="M49.324 32.0176H49.8576L51.7748 36.5231H51.1927L50.6796 35.2891H48.4995L47.9863 36.5231H47.4043L49.324 32.0176ZM48.6603 34.8663H50.5162L49.5895 32.6481L48.6603 34.8663Z" fill="url(#paint3_linear)"/>
<path d="M53.0033 35.7716C53.0033 36.0139 53.1616 36.1673 53.4118 36.1673C53.5088 36.1673 53.6262 36.1475 53.7437 36.1203L53.8126 36.5431C53.6262 36.5827 53.445 36.6025 53.2944 36.6025C52.7761 36.6025 52.457 36.3008 52.457 35.8186V31.8027H53.0033V35.7716Z" fill="url(#paint4_linear)"/>
<path d="M54.7067 31.917C54.9211 31.917 55.0743 32.0654 55.0743 32.2731C55.0743 32.4808 54.9211 32.6292 54.7067 32.6292C54.4846 32.6292 54.334 32.4808 54.334 32.2731C54.334 32.0654 54.4846 31.917 54.7067 31.917ZM54.431 33.2647H54.9773V36.5239H54.431V33.2647Z" fill="url(#paint5_linear)"/>
<path d="M57.3649 34.5456C57.5998 34.5456 57.8576 34.5728 58.1206 34.6396V34.3033C58.1206 33.8878 57.7887 33.5936 57.296 33.5936C56.9361 33.5936 56.5685 33.6752 56.183 33.8359L56.0298 33.4477C56.4995 33.2746 56.9284 33.1855 57.3598 33.1855C58.1206 33.1855 58.6465 33.6405 58.6465 34.3181V35.8933C58.6465 36.0738 58.7562 36.1875 58.9503 36.1875C59.0064 36.1875 59.0881 36.1752 59.1289 36.1678L59.1698 36.5708C59.06 36.5906 58.9349 36.6055 58.8098 36.6055C58.4422 36.6055 58.2074 36.3977 58.1665 36.0614C57.8959 36.4027 57.4594 36.6055 56.9973 36.6055C56.3336 36.6055 55.8281 36.1826 55.8281 35.6262C55.8281 34.9412 56.4102 34.5456 57.3649 34.5456ZM57.1301 36.2148C57.7121 36.2148 58.1206 35.8117 58.1206 35.2355V34.961C57.8857 34.9066 57.656 34.8794 57.4288 34.8794C56.765 34.8794 56.3693 35.1465 56.3693 35.5891C56.3668 35.9477 56.6935 36.2148 57.1301 36.2148Z" fill="url(#paint6_linear)"/>
<path d="M59.7852 33.2642H60.2293L60.2983 33.8602C60.5255 33.4299 60.9773 33.1826 61.5083 33.1826C62.2563 33.1826 62.7898 33.6797 62.7898 34.3968V36.5209H62.2359V34.4759C62.2359 33.9789 61.8683 33.6302 61.35 33.6302C60.768 33.6302 60.3315 34.0605 60.3315 34.6836V36.5209H59.7852V33.2642Z" fill="url(#paint7_linear)"/>
<path d="M64.6989 33.2642H65.7583V33.6871H64.6989V35.6035C64.6989 35.9398 64.9338 36.1673 65.281 36.1673C65.4265 36.1673 65.5847 36.1401 65.7583 36.1005L65.8349 36.516C65.6001 36.5753 65.378 36.6025 65.1635 36.6025C64.5611 36.6025 64.1526 36.2143 64.1526 35.6505V33.6871H63.4531V33.2642H64.1526V32.2998H64.6989V33.2642Z" fill="url(#paint8_linear)"/>
<path d="M67.887 34.5456C68.1219 34.5456 68.3797 34.5728 68.6427 34.6396V34.3033C68.6427 33.8878 68.3108 33.5936 67.8181 33.5936C67.4581 33.5936 67.0905 33.6752 66.7025 33.8359L66.5493 33.4477C67.0191 33.2746 67.4479 33.1855 67.8794 33.1855C68.6401 33.1855 69.166 33.6405 69.166 34.3181V35.8933C69.166 36.0738 69.2758 36.1875 69.4698 36.1875C69.5259 36.1875 69.6076 36.1752 69.6485 36.1678L69.6893 36.5708C69.5796 36.5906 69.4545 36.6055 69.3294 36.6055C68.9618 36.6055 68.7269 36.3977 68.6861 36.0614C68.4155 36.4027 67.9789 36.6055 67.5169 36.6055C66.8531 36.6055 66.3477 36.1826 66.3477 35.6262C66.3528 34.9412 66.9323 34.5456 67.887 34.5456ZM67.6522 36.2148C68.2342 36.2148 68.6427 35.8117 68.6427 35.2355V34.961C68.4078 34.9066 68.178 34.8794 67.9508 34.8794C67.2871 34.8794 66.8914 35.1465 66.8914 35.5891C66.8914 35.9477 67.2182 36.2148 67.6522 36.2148Z" fill="url(#paint9_linear)"/>
<path d="M75.8105 36.2347C75.277 36.4771 74.723 36.6032 74.1639 36.6032C72.7522 36.6032 71.7617 35.6388 71.7617 34.2713C71.7617 32.9039 72.7318 31.9395 74.1078 31.9395C74.6464 31.9395 75.1953 32.0928 75.7339 32.3895L75.5195 32.7728C75.0549 32.5255 74.6132 32.3771 74.169 32.3771C73.0815 32.3771 72.3285 33.161 72.3285 34.2738C72.3285 35.3866 73.0969 36.1704 74.2048 36.1704C74.5852 36.1704 74.9451 36.0888 75.277 35.9429V34.6027H74.1078V34.1872H75.8105V36.2347Z" fill="url(#paint10_linear)"/>
<path d="M76.8359 33.2644H77.2801L77.3491 33.8801C77.515 33.4647 77.9107 33.21 78.3932 33.21C78.5183 33.21 78.6689 33.2297 78.8144 33.2644L78.7531 33.6996C78.6204 33.6724 78.4825 33.6526 78.3523 33.6526C77.7779 33.6526 77.3822 34.1027 77.3822 34.7579V36.5211H76.8359V33.2644Z" fill="url(#paint11_linear)"/>
<path d="M80.9597 33.1855C81.9553 33.1855 82.6701 33.8903 82.6701 34.8943C82.6701 35.9007 81.9578 36.603 80.9597 36.603C79.9564 36.603 79.2441 35.8982 79.2441 34.8943C79.2416 33.8878 79.9538 33.1855 80.9597 33.1855ZM80.9597 36.1752C81.631 36.1752 82.1084 35.6534 82.1084 34.8943C82.1084 34.1425 81.631 33.6133 80.9597 33.6133C80.2806 33.6133 79.8109 34.1425 79.8109 34.8943C79.8109 35.6509 80.2806 36.1752 80.9597 36.1752Z" fill="url(#paint12_linear)"/>
<path d="M86.4656 36.5233H86.0214L85.9525 35.9274C85.7176 36.3552 85.2683 36.6049 84.7348 36.6049C83.9868 36.6049 83.4609 36.1079 83.4609 35.3908V33.2666H84.0072V35.319C84.0072 35.8161 84.38 36.1573 84.8931 36.1573C85.4751 36.1573 85.9117 35.7271 85.9117 35.1039V33.2666H86.4656V36.5233Z" fill="url(#paint13_linear)"/>
<path d="M87.5527 33.2647H87.9969L88.0659 33.8087C88.3007 33.4056 88.7168 33.1855 89.2223 33.1855C90.1005 33.1855 90.7387 33.8952 90.7387 34.8943C90.7387 35.8933 90.103 36.603 89.2223 36.603C88.7372 36.603 88.3441 36.3878 88.1016 36.012V37.9161H87.5553V33.2647H87.5527ZM89.087 33.6208C88.4998 33.6208 88.0914 34.0436 88.0914 34.6321V35.1539C88.0914 35.7499 88.4998 36.1653 89.087 36.1653C89.7175 36.1653 90.1745 35.6435 90.1745 34.8918C90.1745 34.1499 89.7175 33.6208 89.087 33.6208Z" fill="url(#paint14_linear)"/>
<path d="M37.9339 0.723853L40.862 7.91234L43.8565 0.207031L46.7514 7.91234L49.7791 0.723853H51.6095L46.6519 12.1681L43.7569 4.54436L40.8288 12.1681L36.1035 0.723853H37.9339Z" fill="black"/>
<path d="M55.5369 0.723633V11.4755H53.8418V0.723633H55.5369Z" fill="black"/>
<path d="M59.0332 11.4764V0L67.0874 8.17267V0.727009H68.7851V12.1391L60.7308 3.9664V11.4764H59.0332Z" fill="black"/>
<path d="M78.4016 2.27162H73.975V4.83346H78.2689V6.38144H73.975V9.92746H78.4016V11.4755H72.2773V0.723633H78.4016V2.27162Z" fill="black"/>
<path d="M43.4934 16.8673H39.0668V19.4292H43.3607V20.9771H39.0668V24.5232H43.4934V26.0712H37.3691V15.3193H43.4934V16.8673Z" fill="black"/>
<path d="M48.8484 20.4603L45.7875 15.3193H47.6843L49.8465 18.9618L52.0598 15.3193H53.9566L50.763 20.4603L54.1072 26.0687H52.2104L49.7801 21.9589L47.2503 26.0687H45.3535L48.8484 20.4603Z" fill="black"/>
<path d="M58.8831 15.3193C59.5647 15.3193 60.5144 15.3836 61.3134 15.9004C62.2452 16.4964 62.6945 17.5276 62.6945 18.5117C62.6945 19.1398 62.5286 20.1067 61.6121 20.8659C60.7314 21.5904 59.7153 21.7042 58.901 21.7042H58.1351V26.0711H56.4375V15.3193H58.8831ZM58.1326 20.1858H58.8984C60.3638 20.1858 61.0607 19.4935 61.0607 18.4944C61.0607 17.8985 60.8105 16.8352 58.8806 16.8352H58.1326V20.1858Z" fill="black"/>
<path d="M67.2369 15.3189C68.5848 15.3189 69.4502 15.4796 70.165 15.947C71.3801 16.7358 71.4797 18.0093 71.4797 18.4767C71.4797 20.0247 70.4968 21.1523 69.0162 21.4737L72.4779 26.0682H70.4305L67.2522 21.6691H66.9535V26.0682H65.2559V15.3164H67.2369V15.3189ZM66.9535 20.2497H67.487C67.9542 20.2497 69.851 20.2002 69.851 18.494C69.851 16.9781 68.3703 16.8347 67.5381 16.8347H66.9561V20.2497H66.9535Z" fill="black"/>
<path d="M81.095 16.8673H76.6683V19.4292H80.9622V20.9771H76.6683V24.5232H81.095V26.0711H74.9707V15.3193H81.095V16.8673Z" fill="black"/>
<path d="M88.915 17.7051C88.8154 17.4628 88.6648 17.2378 88.4146 17.0276C88.0649 16.7531 87.6999 16.6418 87.2174 16.6418C86.186 16.6418 85.6525 17.2378 85.6525 17.9302C85.6525 18.2516 85.7699 18.8154 86.8498 19.2358L87.9653 19.671C90.0127 20.4772 90.5769 21.6048 90.5769 22.8288C90.5769 24.8763 89.0784 26.2784 87.0004 26.2784C85.7189 26.2784 84.953 25.811 84.3888 25.1978C83.7889 24.5524 83.5234 23.8451 83.457 23.1033L85.1368 22.7497C85.1368 23.2813 85.3359 23.7808 85.604 24.1196C85.9205 24.5079 86.3851 24.765 87.0514 24.765C88.0828 24.765 88.8818 24.0405 88.8818 22.9599C88.8818 21.8644 88.0164 21.4119 87.2837 21.1226L86.2192 20.6873C85.3053 20.3164 83.9574 19.5746 83.9574 17.9623C83.9574 16.5108 85.1215 15.126 87.202 15.126C88.3993 15.126 89.0835 15.5612 89.4307 15.8505C89.7294 16.1077 90.0459 16.4786 90.2782 16.9311L88.915 17.7051Z" fill="black"/>
<path d="M98.3363 17.7051C98.2367 17.4628 98.0861 17.2378 97.8385 17.0276C97.4888 16.7531 97.1237 16.6418 96.6412 16.6418C95.6099 16.6418 95.0763 17.2378 95.0763 17.9302C95.0763 18.2516 95.1937 18.8154 96.2736 19.2358L97.3892 19.671C99.4366 20.4772 100.001 21.6048 100.001 22.8288C100.001 24.8763 98.5022 26.2784 96.4242 26.2784C95.1427 26.2784 94.3768 25.811 93.8127 25.1978C93.2127 24.5524 92.9472 23.8451 92.8809 23.1033L94.5606 22.7497C94.5606 23.2813 94.7598 23.7808 95.0278 24.1196C95.3444 24.5079 95.809 24.765 96.4753 24.765C97.5066 24.765 98.3056 24.0405 98.3056 22.9599C98.3056 21.8644 97.4402 21.4119 96.7076 21.1226L95.643 20.6873C94.7291 20.3164 93.3812 19.5746 93.3812 17.9623C93.3812 16.5108 94.5453 15.126 96.6259 15.126C97.8232 15.126 98.5073 15.5612 98.8545 15.8505C99.1532 16.1077 99.4698 16.4786 99.7021 16.9311L98.3363 17.7051Z" fill="black"/>
<defs>
<linearGradient id="paint0_linear" x1="12.5592" y1="9.60139" x2="12.5592" y2="28.7684" gradientUnits="userSpaceOnUse">
<stop stop-color="#A10912"/>
<stop offset="1" stop-color="#E89515"/>
</linearGradient>
<linearGradient id="paint1_linear" x1="37.205" y1="34.4058" x2="99.4978" y2="28.3183" gradientUnits="userSpaceOnUse">
<stop stop-color="#B12333"/>
<stop offset="1" stop-color="#6B1629"/>
</linearGradient>
<linearGradient id="paint2_linear" x1="37.3703" y1="36.1003" x2="99.6663" y2="30.0125" gradientUnits="userSpaceOnUse">
<stop stop-color="#B12333"/>
<stop offset="1" stop-color="#6B1629"/>
</linearGradient>
<linearGradient id="paint3_linear" x1="37.3115" y1="35.4843" x2="99.6068" y2="29.3966" gradientUnits="userSpaceOnUse">
<stop stop-color="#B12333"/>
<stop offset="1" stop-color="#6B1629"/>
</linearGradient>
<linearGradient id="paint4_linear" x1="37.3244" y1="35.6336" x2="99.6194" y2="29.5459" gradientUnits="userSpaceOnUse">
<stop stop-color="#B12333"/>
<stop offset="1" stop-color="#6B1629"/>
</linearGradient>
<linearGradient id="paint5_linear" x1="37.3452" y1="35.8241" x2="99.634" y2="29.7371" gradientUnits="userSpaceOnUse">
<stop stop-color="#B12333"/>
<stop offset="1" stop-color="#6B1629"/>
</linearGradient>
<linearGradient id="paint6_linear" x1="37.4379" y1="36.785" x2="99.7335" y2="30.6972" gradientUnits="userSpaceOnUse">
<stop stop-color="#B12333"/>
<stop offset="1" stop-color="#6B1629"/>
</linearGradient>
<linearGradient id="paint7_linear" x1="37.4667" y1="37.0784" x2="99.7623" y2="30.9907" gradientUnits="userSpaceOnUse">
<stop stop-color="#B12333"/>
<stop offset="1" stop-color="#6B1629"/>
</linearGradient>
<linearGradient id="paint8_linear" x1="37.4537" y1="36.9514" x2="99.7495" y2="30.8636" gradientUnits="userSpaceOnUse">
<stop stop-color="#B12333"/>
<stop offset="1" stop-color="#6B1629"/>
</linearGradient>
<linearGradient id="paint9_linear" x1="37.5305" y1="37.7414" x2="99.8261" y2="31.6537" gradientUnits="userSpaceOnUse">
<stop stop-color="#B12333"/>
<stop offset="1" stop-color="#6B1629"/>
</linearGradient>
<linearGradient id="paint10_linear" x1="37.5194" y1="37.6305" x2="99.8144" y2="31.5428" gradientUnits="userSpaceOnUse">
<stop stop-color="#B12333"/>
<stop offset="1" stop-color="#6B1629"/>
</linearGradient>
<linearGradient id="paint11_linear" x1="37.6085" y1="38.5162" x2="99.9023" y2="32.4287" gradientUnits="userSpaceOnUse">
<stop stop-color="#B12333"/>
<stop offset="1" stop-color="#6B1629"/>
</linearGradient>
<linearGradient id="paint12_linear" x1="37.6403" y1="38.8665" x2="99.9352" y2="32.7789" gradientUnits="userSpaceOnUse">
<stop stop-color="#B12333"/>
<stop offset="1" stop-color="#6B1629"/>
</linearGradient>
<linearGradient id="paint13_linear" x1="37.6765" y1="39.2301" x2="99.9697" y2="33.1426" gradientUnits="userSpaceOnUse">
<stop stop-color="#B12333"/>
<stop offset="1" stop-color="#6B1629"/>
</linearGradient>
<linearGradient id="paint14_linear" x1="37.7679" y1="40.1817" x2="100.063" y2="34.0941" gradientUnits="userSpaceOnUse">
<stop stop-color="#B12333"/>
<stop offset="1" stop-color="#6B1629"/>
</linearGradient>
</defs>
</svg>
