<svg width="120" height="35" viewBox="0 0 120 35" fill="none" xmlns="http://www.w3.org/2000/svg">
<path d="M48.0698 27.6396H51.8153C51.8431 28.6969 51.5245 29.7342 50.9084 30.5929C50.5023 31.0864 49.9877 31.4789 49.4049 31.7397C48.8221 32.0004 48.1869 32.1223 47.5492 32.0958C46.9408 32.1142 46.335 32.0082 45.7687 31.7843C45.2025 31.5604 44.6877 31.2232 44.2557 30.7933C43.8238 30.3635 43.4837 29.8499 43.2563 29.284C43.0288 28.7181 42.9188 28.1117 42.9328 27.5017C42.9243 26.8886 43.0392 26.28 43.2707 25.7124C43.5022 25.1448 43.8455 24.6297 44.2801 24.1981C44.7147 23.7665 45.2317 23.4272 45.8002 23.2004C46.3686 22.9736 46.9768 22.864 47.5885 22.8782C48.6052 22.8606 49.5954 23.2034 50.3845 23.8462C50.795 24.1535 51.1561 24.522 51.4551 24.9389L50.987 25.313C50.7547 24.9415 50.4652 24.6093 50.1292 24.3286C49.5384 23.831 48.8168 23.5151 48.0512 23.4186C47.2856 23.3221 46.5084 23.4492 45.8131 23.7846C45.1178 24.1201 44.5339 24.6496 44.1316 25.3095C43.7293 25.9695 43.5256 26.7319 43.5451 27.505C43.5309 28.0359 43.624 28.5642 43.8188 29.0581C44.0136 29.552 44.306 30.0013 44.6786 30.3789C45.0511 30.7566 45.496 31.0549 45.9865 31.2557C46.477 31.4566 47.003 31.5559 47.5328 31.5478C48.1341 31.5665 48.7309 31.4383 49.2716 31.1741C49.8124 30.91 50.2809 30.5179 50.6366 30.0317C50.9802 29.4708 51.1824 28.8345 51.226 28.1777H48.0665L48.0698 27.6396Z" fill="#1B1C20"/>
<path d="M58.9324 31.9382L56.0414 27.7051H55.7729V31.9382H55.1836V22.9699H56.4703C57.1313 22.9168 57.792 23.0766 58.3561 23.4261C58.658 23.6438 58.9007 23.9338 59.062 24.2697C59.2233 24.6056 59.298 24.9767 59.2794 25.349C59.306 25.827 59.173 26.3003 58.9015 26.6943C58.63 27.0882 58.2354 27.3803 57.7799 27.5246C57.4262 27.6422 57.0557 27.7009 56.6831 27.6985L59.6003 31.9316L58.9324 31.9382ZM55.7729 27.1669H56.6405C57.9109 27.1669 58.6737 26.5106 58.6737 25.3424C58.699 25.0349 58.6387 24.7263 58.4994 24.4511C58.3601 24.1759 58.1473 23.9449 57.8847 23.7837C57.4552 23.5936 56.9888 23.5017 56.5194 23.5147H55.7827L55.7729 27.1669Z" fill="#1B1C20"/>
<path d="M71.5272 27.4786C71.5311 28.398 71.2626 29.2977 70.7558 30.064C70.249 30.8302 69.5266 31.4284 68.6802 31.7828C67.8339 32.1371 66.9016 32.2317 66.0015 32.0545C65.1015 31.8773 64.2742 31.4363 63.6244 30.7874C62.9747 30.1385 62.5318 29.3109 62.3518 28.4094C62.1718 27.508 62.2629 26.5733 62.6134 25.7237C62.964 24.8742 63.5583 24.1481 64.321 23.6374C65.0837 23.1267 65.9805 22.8544 66.8977 22.8551C67.507 22.8454 68.112 22.9582 68.6769 23.1869C69.2419 23.4156 69.7554 23.7556 70.187 24.1866C70.6186 24.6177 70.9596 25.1311 71.1898 25.6966C71.42 26.262 71.5347 26.868 71.5272 27.4786ZM70.9117 27.4786C70.9033 26.684 70.6605 25.9097 70.2139 25.2531C69.7672 24.5966 69.1367 24.0871 68.4018 23.789C67.6668 23.4909 66.8603 23.4174 66.0838 23.5778C65.3072 23.7382 64.5954 24.1254 64.038 24.6905C63.4805 25.2555 63.1024 25.9733 62.9512 26.7534C62.8 27.5334 62.8824 28.3409 63.1882 29.0741C63.494 29.8073 64.0093 30.4334 64.6695 30.8735C65.3296 31.3137 66.1049 31.5482 66.8977 31.5476C67.4306 31.5544 67.9594 31.4534 68.4524 31.2508C68.9455 31.0481 69.3927 30.7479 69.7674 30.3681C70.1421 29.9882 70.4366 29.5366 70.6332 29.0401C70.8298 28.5437 70.9245 28.0126 70.9117 27.4786Z" fill="#1B1C20"/>
<path d="M75.4897 22.9707V28.5787C75.4897 29.4253 75.529 29.9766 75.863 30.5148C76.3835 31.3614 77.3625 31.5484 77.9387 31.5484C78.5149 31.5484 79.4906 31.3614 80.0112 30.5148C80.3386 29.9766 80.3877 29.4253 80.3877 28.5787V22.9707H80.9737V28.5787C80.9737 29.5631 80.9213 30.2194 80.4663 30.8757C80.1608 31.2528 79.7753 31.5569 79.3377 31.7657C78.9002 31.9746 78.4217 32.0829 77.9371 32.0829C77.4524 32.0829 76.9739 31.9746 76.5364 31.7657C76.0988 31.5569 75.7133 31.2528 75.4079 30.8757C74.9528 30.2194 74.9004 29.5631 74.9004 28.5787V22.9707H75.4897Z" fill="#1B1C20"/>
<path d="M85.4155 27.6796V31.9455H84.8262V22.9707H86.5549C88.0118 22.9707 89.1741 23.7779 89.1741 25.3071C89.1741 26.8363 88.1199 27.673 86.5811 27.673L85.4155 27.6796ZM85.4155 27.1414H86.5942C87.7564 27.1414 88.5586 26.4556 88.5586 25.3268C88.5586 24.198 87.8121 23.5154 86.5123 23.5154H85.4286L85.4155 27.1414Z" fill="#1B1C20"/>
<path d="M51.4027 12.8832H46.2723L44.9332 15.8037H42.9688L48.9209 3.02246L54.6505 15.8037H52.6861L51.4027 12.8832ZM50.666 11.1769L48.8915 7.08818L47.0253 11.1769H50.666Z" fill="#1B1C20"/>
<path d="M59.5541 3.77734V14.1008H63.0802V15.8039H57.7402V3.77734H59.5541Z" fill="#1B1C20"/>
<path d="M68.2012 3.77734H66.3906V15.8072H68.2012V3.77734Z" fill="#1B1C20"/>
<path d="M79.7295 12.8832H74.5893L73.2535 15.8037H71.2891L77.2413 3.02246L82.9708 15.8037H80.9868L79.7295 12.8832ZM78.9896 11.1769L77.2085 7.08818L75.3456 11.1769H78.9896Z" fill="#1B1C20"/>
<path d="M86.0605 15.8036V2.95996L94.812 12.1349V3.77704H96.6226V16.5386L87.8711 7.38336V15.8036H86.0605Z" fill="#1B1C20"/>
<path d="M104.403 5.4837V15.8039H102.592V5.4837H99.832V3.77734H107.156V5.4837H104.403Z" fill="#1B1C20"/>
<path d="M116.763 12.8832H111.622L110.287 15.8037H108.322L114.265 3.02246L119.991 15.8037H118.026L116.763 12.8832ZM116.023 11.1769L114.242 7.08818L112.379 11.1769H116.023Z" fill="#1B1C20"/>
<path d="M15.3954 9.88056L14.207 7.18976H20.7125L19.5273 9.88056H20.8107L22.5132 6.01172H12.4062L14.112 9.88056H15.3954Z" fill="url(#paint0_linear)"/>
<path d="M19.5273 25.1191L20.7125 27.8099H14.207L15.3954 25.1191H14.112L12.4062 28.9847H22.5132L20.8107 25.1191H19.5273Z" fill="url(#paint1_linear)"/>
<path d="M5.99805 22.5634L9.85814 20.8571V19.5708L7.17343 20.7586V14.2384L9.85814 15.4296V14.1432L5.99805 12.4336V22.5634Z" fill="url(#paint2_linear)"/>
<path d="M25.0625 15.4296L27.7472 14.2384V20.7586L25.0625 19.5708V20.8571L28.9193 22.5634V12.4336L25.0625 14.1432V15.4296Z" fill="url(#paint3_linear)"/>
<path d="M21.7266 12.3909L22.5582 13.2211L24.6896 11.0849C25.2134 10.5632 24.647 9.46387 24.647 9.46387L21.7266 12.3909Z" fill="url(#paint4_linear)"/>
<path d="M12.3625 13.2211L13.1909 12.3909L10.2737 9.46387C10.2737 9.46387 9.70729 10.5632 10.2279 11.0849L12.3625 13.2211Z" fill="url(#paint5_linear)"/>
<path d="M22.5582 21.7793L21.7266 22.6095L24.647 25.5366C24.647 25.5366 25.2134 24.4373 24.6896 23.9155L22.5582 21.7793Z" fill="url(#paint6_linear)"/>
<path d="M12.3625 21.7793L10.2279 23.9155C9.70729 24.4373 10.2737 25.5366 10.2737 25.5366L13.1909 22.6095L12.3625 21.7793Z" fill="url(#paint7_linear)"/>
<path d="M17.4604 0C14.0071 0 10.6313 1.02636 7.75995 2.94928C4.88859 4.87221 2.65064 7.60533 1.3291 10.803C0.00756533 14.0007 -0.33821 17.5194 0.335505 20.9141C1.00922 24.3087 2.67217 27.4269 5.11405 29.8744C7.55594 32.3218 10.6671 33.9885 14.0541 34.6637C17.4411 35.339 20.9518 34.9924 24.1423 33.6679C27.3327 32.3434 30.0597 30.1003 31.9783 27.2225C33.8968 24.3446 34.9209 20.9612 34.9209 17.5C34.9157 12.8603 33.0744 8.41214 29.8011 5.13139C26.5278 1.85063 22.0896 0.00521119 17.4604 0V0ZM17.4604 33.8351C14.237 33.8351 11.0859 32.877 8.40568 31.0821C5.72546 29.2872 3.63648 26.736 2.40291 23.7512C1.16935 20.7663 0.846587 17.4819 1.47546 14.3132C2.10432 11.1445 3.65657 8.23385 5.93591 5.94935C8.21525 3.66485 11.1193 2.10908 14.2808 1.47879C17.4424 0.848498 20.7194 1.17199 23.6975 2.40835C26.6756 3.64471 29.221 5.73842 31.0119 8.42471C32.8027 11.111 33.7586 14.2692 33.7586 17.5C33.7543 21.831 32.0358 25.9834 28.9802 29.0458C25.9246 32.1083 21.7817 33.8307 17.4604 33.8351Z" fill="url(#paint8_linear)"/>
<path d="M20.4735 14.6744L21.3215 13.877C20.48 12.976 19.3511 12.3977 18.1297 12.2417C16.9083 12.0857 15.6708 12.3619 14.6308 13.0226C13.5908 13.6832 12.8134 14.6869 12.4328 15.8606C12.0522 17.0343 12.0922 18.3043 12.5459 19.4515C12.9996 20.5988 13.8386 21.5514 14.9181 22.145C15.9976 22.7386 17.25 22.936 18.4591 22.7031C19.6683 22.4703 20.7585 21.8217 21.5417 20.8694C22.3248 19.9171 22.7518 18.7207 22.749 17.4866V16.9189H19.6779L18.0081 13.4044C18.9526 13.5264 19.8248 13.9756 20.4735 14.6744ZM16.9113 13.4044L13.9451 19.6392C13.5899 19.0535 13.3858 18.3884 13.3512 17.7039C13.3166 17.0194 13.4526 16.337 13.747 15.7183C14.0413 15.0997 14.4847 14.5642 15.0371 14.1602C15.5896 13.7563 16.2337 13.4965 16.9113 13.4044ZM14.7701 20.6236L15.9782 18.0805H18.9445L20.1526 20.6302C19.4053 21.2786 18.4499 21.6355 17.4614 21.6355C16.4729 21.6355 15.5175 21.2786 14.7701 20.6302V20.6236ZM21.5474 18.0772C21.4667 18.6362 21.2717 19.1725 20.9744 19.6523L20.2279 18.0772H21.5474ZM16.5316 16.9189L17.4614 14.95L18.3912 16.9189H16.5316Z" fill="url(#paint9_linear)"/>
<defs>
<linearGradient id="paint0_linear" x1="5.32451" y1="1.10594" x2="37.7135" y2="18.0927" gradientUnits="userSpaceOnUse">
<stop stop-color="#B22332"/>
<stop offset="1" stop-color="#6B172A"/>
</linearGradient>
<linearGradient id="paint1_linear" x1="-76.9392" y1="222.765" x2="364.274" y2="829.219" gradientUnits="userSpaceOnUse">
<stop stop-color="#B22332"/>
<stop offset="1" stop-color="#6B172A"/>
</linearGradient>
<linearGradient id="paint2_linear" x1="-8.12988" y1="430.594" x2="459.928" y2="524.34" gradientUnits="userSpaceOnUse">
<stop stop-color="#B22332"/>
<stop offset="1" stop-color="#6B172A"/>
</linearGradient>
<linearGradient id="paint3_linear" x1="67.8346" y1="146.35" x2="535.558" y2="239.968" gradientUnits="userSpaceOnUse">
<stop stop-color="#B22332"/>
<stop offset="1" stop-color="#6B172A"/>
</linearGradient>
<linearGradient id="paint4_linear" x1="71.0985" y1="27.5739" x2="406.283" y2="176.957" gradientUnits="userSpaceOnUse">
<stop stop-color="#B22332"/>
<stop offset="1" stop-color="#6B172A"/>
</linearGradient>
<linearGradient id="paint5_linear" x1="33.4988" y1="85.6612" x2="368.52" y2="234.838" gradientUnits="userSpaceOnUse">
<stop stop-color="#B22332"/>
<stop offset="1" stop-color="#6B172A"/>
</linearGradient>
<linearGradient id="paint6_linear" x1="21.8858" y1="150.353" x2="357.07" y2="299.736" gradientUnits="userSpaceOnUse">
<stop stop-color="#B22332"/>
<stop offset="1" stop-color="#6B172A"/>
</linearGradient>
<linearGradient id="paint7_linear" x1="-15.7113" y1="208.403" x2="319.347" y2="357.61" gradientUnits="userSpaceOnUse">
<stop stop-color="#B22332"/>
<stop offset="1" stop-color="#6B172A"/>
</linearGradient>
<linearGradient id="paint8_linear" x1="129.557" y1="953.75" x2="3584.17" y2="2765.56" gradientUnits="userSpaceOnUse">
<stop stop-color="#B22332"/>
<stop offset="1" stop-color="#6B172A"/>
</linearGradient>
<linearGradient id="paint9_linear" x1="51.4076" y1="301.025" x2="1097.57" y2="849.698" gradientUnits="userSpaceOnUse">
<stop stop-color="#B22332"/>
<stop offset="1" stop-color="#6B172A"/>
</linearGradient>
</defs>
</svg>
